<svg viewBox="0 0 128 128" xml:space="preserve" xmlns="http://www.w3.org/2000/svg" enable-background="new 0 0 128 128"><path d="M109 55c0-29.8-24.2-54-54-54S1 25.2 1 55s24.2 54 54 54c13.5 0 25.8-5 35.2-13.1l25.4 25.4 5.7-5.7-25.4-25.4C104 80.8 109 68.5 109 55zm-54 46C29.6 101 9 80.4 9 55S29.6 9 55 9s46 20.6 46 46-20.6 46-46 46z" fill="#ffcc00" class="fill-000000"></path><path d="m25.6 30.9 6.2 5.1C37.5 29 46 25 55 25v-8c-11.4 0-22.1 5.1-29.4 13.9zM17 55h8c0-2.1.2-4.1.6-6.1l-7.8-1.6c-.5 2.5-.8 5.1-.8 7.7z" fill="#ffcc00" class="fill-000000"></path></svg>